<?xml version="1.0" encoding="utf-8"?>
<!-- Generator: Adobe Illustrator 24.3.0, SVG Export Plug-In . SVG Version: 6.00 Build 0)  -->
<svg version="1.1" id="Layer_1" xmlns="http://www.w3.org/2000/svg" xmlns:xlink="http://www.w3.org/1999/xlink" x="0px" y="0px"
	 viewBox="0 0 64 64" enable-background="new 0 0 64 64" xml:space="preserve">
<path fill="#2E2C44" d="M18,46c-3.3,0-6,2.7-6,6v9h40v-9c0-3.3-2.7-6-6-6H18z"/>
<path fill="#1C9699" d="M32,50L32,50c-7.7,0-14-6.3-14-14V19c0-7.7,6.3-14,14-14h0c7.7,0,14,6.3,14,14v17C46,43.7,39.7,50,32,50z"/>
<path fill="#1C9699" d="M18,46h4.2c-1.4-1.4-2.5-3.1-3.3-4.9l0,0l-2.6,5.2C16.9,46.1,17.4,46,18,46z"/>
<path fill="#1C9699" d="M47.6,46.2L45,41.1l0,0c-0.7,1.9-1.8,3.6-3.3,4.9H46C46.6,46,47.1,46.1,47.6,46.2z"/>
<path fill="#F7CCB2" d="M41.6,20.7c-0.4-1.5-1.5-2.6-3-2.9l-0.1,0c-4.3-1-8.7-1-13,0c-1.5,0.3-2.7,1.5-3,3L21,27.3V29
	c0,6.1,4.9,11,11,11s11-4.9,11-11v-2.7L41.6,20.7z"/>
<path fill="#1C9699" d="M25.5,17.7c4.3-1,8.7-1,13,0l0.1,0c1.5,0.3,2.6,1.5,3,2.9l1.4,5.6V23c0-6.1-4.9-11-11-11s-11,4.9-11,11v4.3
	l1.4-6.5C22.8,19.2,24,18.1,25.5,17.7z"/>
<path fill="#30271F" d="M27,28.8c-1,0-1.8-0.8-1.8-1.8s0.8-1.8,1.8-1.8s1.8,0.8,1.8,1.8S28,28.8,27,28.8z M27,26.8
	c-0.1,0-0.2,0.1-0.2,0.2c0,0.3,0.5,0.3,0.5,0C27.2,26.9,27.1,26.8,27,26.8z"/>
<path fill="#30271F" d="M37,28.8c-1,0-1.8-0.8-1.8-1.8s0.8-1.8,1.8-1.8s1.8,0.8,1.8,1.8S38,28.8,37,28.8z M37,26.8
	c-0.1,0-0.2,0.1-0.2,0.2c0,0.3,0.5,0.3,0.5,0C37.2,26.9,37.1,26.8,37,26.8z"/>
<path fill="#F08A73" d="M32,35.8c-2.1,0-3.8-1.7-3.8-3.8h1.5c0,1.2,1,2.2,2.2,2.2s2.2-1,2.2-2.2h1.5C35.8,34.1,34.1,35.8,32,35.8z"
	/>
<path opacity="0.25" d="M18,46h4.2c-1.4-1.4-2.5-3.1-3.3-4.9l0,0l-2.6,5.2C16.9,46.1,17.4,46,18,46z"/>
<path opacity="0.25" d="M47.6,46.2L45,41.1l0,0c-0.7,1.9-1.8,3.6-3.3,4.9H46C46.6,46,47.1,46.1,47.6,46.2z"/>
<path opacity="0.25" d="M32,10.7c-6.1,0-11,4.9-11,11V23c0-6.1,4.9-11,11-11s11,4.9,11,11v-1.3C43,15.7,38.1,10.7,32,10.7z"/>
<path fill="#F7C4A5" d="M38.6,17.7L38.6,17.7c-4.4-1-8.8-1-13.1,0c-1.5,0.3-2.7,1.5-3,3L21,27.3V29l1.4-6.5c0.3-1.5,1.5-2.7,3-3
	c4.3-1,8.7-1,13,0l0.1,0c1.5,0.3,2.6,1.5,3,2.9L43,28v-1.7l-1.4-5.6C41.2,19.2,40.1,18.1,38.6,17.7z"/>
</svg>
